# xmcd
#
# Track frame offsets:
#	150
#	16795
#	34210
#	53367
#	71037
#	83465
#	96647
#	116060
#	134412
#	155235
#	173800
#	188250
#	204472
#	217767
#	230710
#
# Disc length: 3284 seconds
#
# Revision: 1
# Processed by: cddbd v1.4PL0 Copyright (c) Steve Scherf et al.
# Submitted via: audiograbber 1.81.02
#
DISCID=c60cd20f
DTITLE=Western Canadians - Go West [CD1)
DYEAR=1900
DGENRE=
TTITLE0=Precious (The Dalai Lamas)
TTITLE1=Vanity (Shines N F-Roc)
TTITLE2=Many Moons (Mood Ruff)
TTITLE3=The Hill (Load)
TTITLE4=Theme from Let's Snorkel (Capt. Nemo)
TTITLE5=My Saddle Horse has Died (The Smalls)
TTITLE6=None of the Above (The Weakerthans)
TTITLE7=Raincoat (downhere)
TTITLE8=Saved (Jann Arden)
TTITLE9=Broken Me (Mark Reeves)
TTITLE10=So Sarcastic (Tuesday's Girl)
TTITLE11=Get Outta Dodge (Huevos Rancheros)
TTITLE12=Why (Wide Mouth Mason)
TTITLE13=Don't Jump Back (Rockin' Highliners)
TTITLE14=Weather (The New Meanies)
EXTD=
EXTT0=
EXTT1=
EXTT2=
EXTT3=
EXTT4=
EXTT5=
EXTT6=
EXTT7=
EXTT8=
EXTT9=
EXTT10=
EXTT11=
EXTT12=
EXTT13=
EXTT14=
PLAYORDER=
